<svg id="visual" viewBox="0 0 960 540" width="960" height="540" xmlns="http://www.w3.org/2000/svg" xmlns:xlink="http://www.w3.org/1999/xlink" version="1.1"><g><g transform="translate(779 160)"><path d="M88.6 -22.8C100.6 7.8 86 53.1 56.7 73.3C27.3 93.5 -16.8 88.7 -43.7 67.4C-70.5 46.2 -80.2 8.5 -70 -19.7C-59.8 -47.9 -29.9 -66.6 4.2 -68C38.4 -69.4 76.7 -53.4 88.6 -22.8Z" stroke="#8888f9" fill="none" stroke-width="20"></path></g><g transform="translate(283 178)"><path d="M68.2 -17.2C77.9 7.7 68 43.8 46 58.7C24.1 73.5 -10 67.1 -36.7 48.2C-63.4 29.3 -82.8 -1.9 -75.4 -23.6C-68.1 -45.2 -34 -57.3 -2.4 -56.5C29.2 -55.7 58.5 -42.1 68.2 -17.2Z" stroke="#8888f9" fill="none" stroke-width="20"></path></g><g transform="translate(583 379)"><path d="M83.4 -28.2C92 -0.9 71.5 34.7 41.1 57C10.6 79.2 -30 88.1 -55.9 70.7C-81.8 53.4 -93.1 9.7 -81.4 -22C-69.6 -53.7 -34.8 -73.5 1.3 -73.9C37.5 -74.3 74.9 -55.4 83.4 -28.2Z" stroke="#8888f9" fill="none" stroke-width="20"></path></g></g></svg>