<?xml version="1.0" standalone="no"?>
<!DOCTYPE svg PUBLIC "-//W3C//DTD SVG 20010904//EN"
 "http://www.w3.org/TR/2001/REC-SVG-20010904/DTD/svg10.dtd">
<svg version="1.0" xmlns="http://www.w3.org/2000/svg"
 width="500.000000pt" height="500.000000pt" viewBox="0 0 500.000000 500.000000"
 preserveAspectRatio="xMidYMid meet">

<g transform="translate(0.000000,500.000000) scale(0.100000,-0.100000)"
fill="#000000" stroke="none">
<path d="M2471 4878 c-24 -4 -45 -9 -47 -10 -1 -2 -15 -114 -29 -248 -14 -135
-27 -249 -29 -255 -1 -5 -51 85 -109 200 -59 116 -112 219 -120 229 -11 15
-21 17 -58 11 l-46 -7 -27 -251 c-15 -139 -29 -253 -31 -255 -2 -2 -54 97
-117 220 l-113 223 -49 -3 c-27 -1 -52 -4 -54 -7 -2 -2 63 -127 146 -277 l150
-273 48 3 c26 1 50 4 53 7 2 3 17 112 32 241 16 130 30 239 33 241 2 2 54 -93
116 -212 l112 -216 41 6 c23 4 46 11 51 16 9 8 98 594 93 614 -1 7 -18 8 -46
3z"/>
<path d="M3266 4648 c-24 -51 -82 -173 -129 -271 -47 -97 -88 -185 -91 -195
-5 -14 3 -23 29 -35 47 -23 51 -22 65 13 l13 31 26 -53 c22 -43 36 -57 80 -80
160 -84 331 31 331 224 0 135 -145 243 -266 198 -15 -6 -28 -9 -30 -7 -2 2 21
54 51 115 l54 112 -39 20 c-22 11 -42 20 -45 20 -3 0 -26 -42 -49 -92z m169
-252 c37 -24 68 -97 60 -140 -27 -141 -196 -185 -271 -70 -41 62 -10 171 60
216 37 23 111 20 151 -6z"/>
<path d="M2740 4659 c-139 -56 -188 -267 -87 -378 62 -67 205 -92 295 -51 l43
20 -17 30 c-21 35 -20 35 -70 14 -71 -30 -161 0 -194 66 -25 49 -26 73 -2 66
29 -9 324 -57 328 -53 12 11 14 118 4 157 -15 56 -72 114 -125 129 -49 13
-141 13 -175 0z m131 -69 c19 -5 47 -22 61 -37 27 -29 46 -87 31 -96 -7 -5
-223 28 -251 38 -10 4 -9 12 5 35 19 33 46 55 78 63 32 8 38 7 76 -3z"/>
<path d="M3900 4044 c-107 -91 -210 -178 -229 -193 l-33 -27 79 -94 c144 -171
188 -201 304 -208 66 -4 84 -1 131 20 71 33 118 75 154 140 25 46 29 63 29
133 0 60 -6 91 -21 125 -19 41 -195 263 -212 267 -4 1 -95 -73 -202 -163z
m303 -94 c27 -38 32 -56 35 -115 4 -66 2 -73 -30 -120 -47 -70 -122 -109 -197
-102 -32 4 -67 15 -90 30 -39 26 -141 144 -140 162 1 6 72 69 158 142 l156
132 38 -42 c21 -23 53 -62 70 -87z"/>
<path d="M981 4063 l-42 -47 -44 44 -45 44 -35 -34 -35 -34 45 -46 45 -46 -22
-21 c-21 -22 -21 -23 -3 -43 23 -25 37 -25 60 0 17 19 19 18 114 -71 110 -105
144 -124 193 -115 40 7 91 56 112 107 l15 36 -33 16 -34 16 -23 -37 c-39 -59
-56 -55 -162 45 l-94 88 45 54 45 53 -24 19 c-13 10 -27 19 -31 19 -3 0 -25
-21 -47 -47z"/>
<path d="M1517 4052 c-21 -23 -22 -56 -1 -76 18 -19 55 -21 72 -4 18 18 14 63
-6 81 -24 22 -45 21 -65 -1z"/>
<path d="M733 3749 c-80 -23 -149 -171 -112 -241 15 -27 5 -33 -23 -14 -33 23
-42 20 -66 -22 l-21 -39 192 -111 c107 -62 196 -112 199 -112 7 0 48 63 48 73
0 4 -44 32 -97 63 -114 66 -160 106 -168 146 -15 66 30 142 91 154 34 6 87
-19 265 -125 l37 -22 21 36 c11 20 21 40 21 45 0 11 -259 158 -301 170 -39 11
-43 11 -86 -1z"/>
<path d="M4169 3482 c-78 -41 -112 -94 -117 -183 -4 -60 -1 -77 22 -124 28
-56 97 -125 126 -125 9 0 22 11 28 25 11 23 8 29 -37 73 -35 33 -51 58 -56 85
-10 54 1 100 33 130 l28 27 63 -153 c35 -83 67 -156 71 -160 12 -14 104 38
142 81 45 50 55 101 34 175 -34 116 -110 177 -223 177 -47 0 -73 -6 -114 -28z
m200 -77 c41 -21 75 -95 66 -142 -6 -32 -59 -102 -70 -91 -4 4 -105 238 -105
244 0 11 84 2 109 -11z"/>
<path d="M495 3216 c-68 -30 -116 -128 -114 -230 2 -83 10 -102 45 -98 40 5
44 11 35 60 -18 94 28 182 95 182 41 0 41 -3 13 -113 -22 -89 -20 -141 8 -184
20 -30 69 -53 115 -53 109 0 175 145 124 271 -6 13 -2 16 18 12 21 -4 28 0 36
22 22 58 20 59 -132 99 -179 46 -206 50 -243 32z m219 -127 c38 -18 61 -84 46
-138 -19 -72 -69 -101 -115 -67 -24 18 -24 61 0 149 19 70 26 75 69 56z"/>
<path d="M4385 2972 l-200 -118 2 -48 c1 -26 4 -50 7 -53 7 -7 470 -102 475
-97 2 2 0 23 -5 46 l-9 42 -184 33 c-101 18 -185 34 -187 35 -1 2 71 44 162
93 158 87 164 91 164 122 0 34 -8 63 -19 63 -3 0 -96 -53 -206 -118z"/>
<path d="M555 2721 c-105 -5 -136 -10 -164 -26 -46 -27 -71 -77 -71 -143 0
-65 18 -110 58 -144 l30 -25 -90 -7 c-50 -3 -111 -6 -135 -6 l-43 0 0 -45 0
-45 208 0 c114 0 258 3 320 7 l112 6 0 44 0 43 -131 0 c-148 0 -188 12 -220
64 -25 42 -25 106 1 139 29 37 76 47 223 47 l127 0 0 50 0 50 -47 -2 c-27 -1
-106 -4 -178 -7z"/>
<path d="M4310 2567 c-109 -58 -150 -219 -86 -333 24 -44 31 -46 64 -23 l23
17 -21 43 c-27 51 -24 126 7 167 22 30 88 70 98 60 6 -5 -8 -225 -20 -315 l-4
-33 67 1 c120 1 180 41 208 136 31 106 -2 210 -84 268 -39 26 -53 30 -125 33
-71 3 -88 0 -127 -21z m210 -92 c38 -19 60 -63 60 -115 0 -73 -49 -130 -111
-130 -21 0 -21 3 -15 78 12 141 18 182 28 182 5 0 22 -7 38 -15z"/>
<path d="M248 2117 c-22 -5 -38 -15 -38 -23 0 -15 126 -443 132 -450 2 -2 21
2 42 8 43 13 42 9 7 130 -18 62 -18 68 -3 72 9 3 118 35 242 72 124 36 226 67
228 69 5 4 -8 69 -17 83 -5 8 -76 -10 -241 -58 -129 -39 -240 -70 -247 -70 -7
0 -22 33 -33 73 -31 108 -29 105 -72 94z"/>
<path d="M4142 2068 c-6 -23 -10 -43 -9 -45 1 -1 133 -38 292 -83 160 -44 297
-83 306 -86 12 -3 19 6 27 38 6 24 8 46 4 49 -7 7 -582 169 -599 169 -6 0 -15
-19 -21 -42z"/>
<path d="M4146 1876 c-118 -44 -191 -212 -143 -327 47 -112 210 -174 316 -119
86 43 148 156 139 251 -14 140 -180 244 -312 195z m153 -108 c118 -73 81 -247
-56 -265 -79 -9 -173 69 -173 144 0 55 35 112 83 134 49 22 94 18 146 -13z"/>
<path d="M878 1541 c-131 -104 -156 -132 -165 -186 -15 -93 79 -205 172 -205
19 0 35 -2 35 -5 0 -3 -12 -16 -27 -29 l-27 -24 24 -36 c14 -20 28 -36 31 -36
4 0 86 63 183 140 l177 140 -27 35 c-14 19 -30 35 -34 35 -4 0 -47 -32 -96
-71 -49 -39 -101 -77 -116 -85 -58 -30 -133 -8 -168 49 -43 70 -24 106 112
213 59 47 108 90 108 95 0 12 -41 69 -50 69 -4 0 -63 -44 -132 -99z"/>
<path d="M3733 1594 l-30 -38 86 -82 c80 -77 84 -83 58 -84 -39 0 -97 -26
-130 -58 -120 -114 -74 -301 91 -375 132 -58 292 39 292 177 l0 50 28 -27 28
-27 34 35 c29 30 32 37 20 48 -20 19 -355 332 -406 380 l-41 38 -30 -37z m235
-291 c63 -47 90 -129 61 -186 -49 -94 -150 -112 -230 -40 -79 71 -72 180 16
235 38 24 115 20 153 -9z"/>
<path d="M1211 1071 c-78 -93 -141 -173 -140 -177 0 -5 15 -21 33 -36 l32 -27
147 177 148 177 -33 27 c-18 15 -36 28 -40 28 -3 0 -70 -76 -147 -169z"/>
<path d="M3418 1084 c-57 -17 -142 -93 -163 -147 -15 -37 -15 -37 10 -47 39
-15 41 -14 68 33 46 78 145 110 215 67 17 -11 32 -22 32 -24 0 -3 -65 -44
-145 -92 -80 -48 -145 -92 -145 -99 0 -14 49 -83 76 -107 36 -31 95 -50 137
-44 95 16 187 90 208 171 33 120 -49 265 -167 294 -54 14 -67 13 -126 -5z
m212 -237 c0 -114 -137 -185 -211 -111 l-29 29 112 67 c61 37 115 65 120 62 4
-3 8 -24 8 -47z"/>
<path d="M1472 1073 c-18 -4 -21 -9 -16 -31 10 -41 12 -42 62 -42 88 0 163
-66 165 -145 1 -19 -2 -37 -6 -41 -3 -4 -73 30 -154 75 l-147 82 -17 -23 c-22
-28 -49 -111 -49 -147 1 -35 32 -101 61 -127 37 -34 98 -63 146 -70 171 -25
318 181 239 335 -46 88 -187 155 -284 134z m130 -308 c21 -11 36 -24 35 -30
-7 -19 -70 -55 -99 -55 -39 0 -104 34 -124 65 -17 26 -23 93 -10 114 5 8 31
-2 84 -31 42 -23 94 -51 114 -63z"/>
<path d="M3096 924 c-22 -8 -41 -16 -44 -18 -2 -3 15 -62 38 -132 38 -114 41
-130 31 -164 -10 -35 -62 -92 -92 -102 -11 -4 -11 -12 -1 -46 7 -23 15 -42 19
-42 23 0 77 50 97 88 l23 46 12 -37 c7 -20 18 -37 25 -37 22 0 76 22 76 30 0
7 -140 423 -144 426 0 1 -19 -5 -40 -12z"/>
<path d="M1880 903 c0 -4 -27 -136 -60 -292 -33 -157 -57 -288 -53 -292 5 -5
26 -11 48 -14 l41 -7 24 122 c14 67 30 124 36 127 7 2 77 -9 156 -26 79 -17
146 -31 150 -31 3 0 -6 -58 -22 -130 -30 -143 -33 -131 36 -145 28 -5 32 -3
38 20 12 47 116 545 116 554 0 10 -10 14 -63 25 -32 8 -29 15 -58 -126 -17
-84 -25 -108 -38 -108 -21 0 -293 58 -298 64 -4 4 28 174 43 228 4 12 -4 18
-28 23 -18 4 -41 9 -50 11 -10 3 -18 2 -18 -3z"/>
<path d="M2608 819 c-12 -6 -18 -22 -18 -45 0 -27 5 -37 25 -46 38 -17 75 3
75 41 0 50 -40 75 -82 50z"/>
<path d="M982 804 c-42 -29 -17 -104 35 -104 22 0 53 38 53 64 0 24 -32 56
-55 56 -6 0 -21 -7 -33 -16z"/>
</g>
</svg>
