<?xml version="1.0" standalone="no"?><svg xmlns="http://www.w3.org/2000/svg" viewBox="0 0 1440 320"><path fill="#6262f9" fill-opacity="1" d="M0,64L24,58.7C48,53,96,43,144,58.7C192,75,240,117,288,149.3C336,181,384,203,432,181.3C480,160,528,96,576,101.3C624,107,672,181,720,208C768,235,816,213,864,176C912,139,960,85,1008,90.7C1056,96,1104,160,1152,160C1200,160,1248,96,1296,64C1344,32,1392,32,1416,32L1440,32L1440,320L1416,320C1392,320,1344,320,1296,320C1248,320,1200,320,1152,320C1104,320,1056,320,1008,320C960,320,912,320,864,320C816,320,768,320,720,320C672,320,624,320,576,320C528,320,480,320,432,320C384,320,336,320,288,320C240,320,192,320,144,320C96,320,48,320,24,320L0,320Z"></path></svg>